<svg id="Layer_1" data-name="Layer 1" xmlns="http://www.w3.org/2000/svg" xmlns:xlink="http://www.w3.org/1999/xlink" viewBox="0 0 220.58 125.06"><defs><style>.cls-1,.cls-10,.cls-11,.cls-12,.cls-8,.cls-9{fill:none;}.cls-2{clip-path:url(#clip-path);}.cls-3,.cls-4{fill:#fff;}.cls-4{stroke:#fff;stroke-width:1.16px;}.cls-10,.cls-11,.cls-12,.cls-4,.cls-8,.cls-9{stroke-linecap:round;stroke-linejoin:round;}.cls-5{clip-path:url(#clip-path-2);}.cls-6{clip-path:url(#clip-path-3);}.cls-13,.cls-7{isolation:isolate;font-family:ArialMT, Arial;}.cls-7{font-size:12px;}.cls-8{stroke:#f8766d;}.cls-10,.cls-11,.cls-12,.cls-8,.cls-9{stroke-width:0.71px;}.cls-9{stroke:#a3a500;}.cls-10{stroke:#00bf7d;}.cls-11{stroke:#00b0f6;}.cls-12{stroke:#e76bf3;}.cls-13{font-size:9.6px;}.cls-14{clip-path:url(#clip-path-15);}.cls-15{clip-path:url(#clip-path-16);}.cls-16{clip-path:url(#clip-path-17);}.cls-17{clip-path:url(#clip-path-18);}.cls-18,.cls-19{fill:#2e8b57;}.cls-18{fill-opacity:0.75;}.cls-19{fill-opacity:0.5;}</style><clipPath id="clip-path"><rect class="cls-1" x="65.58" y="-17.28" width="146.97" height="218.34"/></clipPath><clipPath id="clip-path-2"><rect class="cls-1" x="-685.05" y="-10.24" width="752.65" height="222.28"/></clipPath><clipPath id="clip-path-3"><rect class="cls-1" x="-719.42" y="-16.22" width="931.97" height="288"/></clipPath><clipPath id="clip-path-15"><rect class="cls-1" x="-12.42" y="47.06" width="90" height="55"/></clipPath><clipPath id="clip-path-16"><rect class="cls-1" x="-0.4" y="-120.45" width="146.97" height="218.34"/></clipPath><clipPath id="clip-path-17"><rect class="cls-1" x="-751.03" y="-113.41" width="752.65" height="222.28"/></clipPath><clipPath id="clip-path-18"><rect class="cls-1" x="-785.4" y="-119.39" width="931.97" height="288"/></clipPath></defs><g class="cls-2"><rect class="cls-3" x="-719.42" y="-16.22" width="931.97" height="288"/><rect class="cls-4" x="-719.42" y="-16.22" width="931.97" height="288"/><g class="cls-5"><rect class="cls-3" x="-685.05" y="-10.24" width="752.65" height="222.28"/></g><g class="cls-6"><rect class="cls-3" x="79.56" y="5.39" width="127.01" height="115.45"/></g><g class="cls-6"><text class="cls-7" transform="translate(85.54 21.22)">Interventions</text></g><g class="cls-6"><circle class="cls-8" cx="94.18" cy="37.1" r="2.49"/></g><g class="cls-6"><rect class="cls-9" x="91.97" y="52.18" width="4.41" height="4.41"/></g><g class="cls-6"><polyline class="cls-10" points="94.18 74.78 97.29 71.66 94.18 68.55 91.06 71.66 94.18 74.78"/></g><g class="cls-6"><polyline class="cls-11" points="94.18 85.07 97.53 90.88 90.82 90.88 94.18 85.07"/></g><g class="cls-6"><polyline class="cls-12" points="94.18 110.09 97.53 104.29 90.82 104.29 94.18 110.09"/></g><g class="cls-6"><text class="cls-13" transform="translate(108.79 40.54)">Complete lockdown</text></g><g class="cls-6"><text class="cls-13" transform="translate(108.79 57.82)">Public events banned</text></g><g class="cls-6"><text class="cls-13" transform="translate(108.79 75.1)">School closure</text></g><g class="cls-6"><text class="cls-13" transform="translate(108.79 92.38)">Self isolation</text></g><g class="cls-6"><text class="cls-13" transform="translate(108.79 109.66)">Social distancing</text></g></g><g class="cls-14"><g class="cls-15"><rect class="cls-3" x="-785.4" y="-119.39" width="931.97" height="288"/><rect class="cls-4" x="-785.4" y="-119.39" width="931.97" height="288"/><g class="cls-16"><rect class="cls-3" x="-751.03" y="-113.41" width="752.65" height="222.28"/></g><g class="cls-17"><rect class="cls-3" x="13.58" y="-97.78" width="127.01" height="115.45"/></g><g class="cls-17"><polyline class="cls-12" points="28.2 6.92 31.55 1.12 24.84 1.12 28.2 6.92"/></g><g class="cls-17"><text class="cls-13" transform="translate(42.8 6.49)">Social distancing</text></g><g class="cls-17"><rect class="cls-3" x="13.58" y="29.63" width="54.43" height="63.61"/></g><g class="cls-17"><rect class="cls-18" x="20.26" y="53.41" width="15.86" height="15.86"/></g><g class="cls-17"><rect class="cls-19" x="20.26" y="70.69" width="15.86" height="15.86"/></g><g class="cls-17"><text class="cls-13" transform="translate(42.8 64.77)">50%</text></g><g class="cls-17"><text class="cls-13" transform="translate(42.8 82.05)">95%</text></g></g></g></svg>